<?xml version="1.0" encoding="UTF-8" standalone="no"?>
<svg viewBox="0 0 800 300" xmlns="http://www.w3.org/2000/svg">
  <!-- Rounded Rectangle Background -->
  <rect x="10" y="20" width="780" height="260" rx="60" ry="60" fill="#6a1fec" />
  
  <!-- Three Dots -->
  <circle cx="95" cy="70" r="12" fill="white" />
  <circle cx="135" cy="70" r="12" fill="white" />
  <circle cx="175" cy="70" r="12" fill="white" />
  
  <!-- MontyAI Text -->
  <text x="105" y="185" font-family="Arial, sans-serif" font-size="95" font-weight="bold" fill="white">
    Monty<tspan fill="#7fffd4">AI</tspan>
  </text>
  
  <!-- Tagline -->
  <text x="90" y="250" font-family="Arial, sans-serif" font-size="35" font-style="italic" fill="white">
    Intelligent Code Explanations
  </text>
  
  <!-- Robot Character -->
  <g transform="translate(630, 80)">
    <!-- Head -->
    <circle cx="40" cy="40" r="35" fill="#7fffd4" />
    
    <!-- Eyes -->
    <circle cx="30" cy="40" r="5" fill="#6a1fec" />
    <circle cx="50" cy="40" r="5" fill="#6a1fec" />
    
    <!-- Mouth -->
    <line x1="30" y1="60" x2="50" y2="60" stroke="#6a1fec" stroke-width="3" />
    
    <!-- Body -->
    <rect x="20" y="80" width="40" height="40" rx="5" ry="5" fill="#7fffd4" />
    
    <!-- Arms -->
    <rect x="5" y="85" width="15" height="10" rx="3" ry="3" fill="#7fffd4" />
    <rect x="60" y="85" width="15" height="10" rx="3" ry="3" fill="#7fffd4" />
    
    <!-- Legs -->
    <rect x="30" y="120" width="10" height="20" rx="3" ry="3" fill="#7fffd4" />
    <rect x="50" y="120" width="10" height="20" rx="3" ry="3" fill="#7fffd4" />
  </g>
</svg>